<svg width="45" height="51" viewBox="0 0 45 51" fill="none" xmlns="http://www.w3.org/2000/svg">
<g filter="url(#filter0_f)">
<path fill-rule="evenodd" clip-rule="evenodd" d="M20.9478 49.9385C21.9899 50.5584 23.0319 50.5584 24.074 49.9385L43.1438 38.9379C43.9775 38.318 44.3943 37.4916 44.3943 36.4584L44.3943 14.763C44.3943 13.7299 43.9775 12.9034 43.1438 12.2835L24.074 1.27878C23.0319 0.658914 21.9899 0.658914 20.9478 1.27878L1.87803 12.2835C1.04438 12.9034 0.627556 13.7299 0.627556 14.763L0.627556 36.4584C0.627556 37.4916 1.04438 38.318 1.87803 38.9379L20.9478 49.9385Z" fill="#5B9BD5" fill-opacity="0.22"/>
</g>
<path fill-rule="evenodd" clip-rule="evenodd" d="M20.805 49.1246C21.8471 49.7445 22.8891 49.7445 23.9312 49.1246L43.001 38.124C43.8346 37.5041 44.2515 36.6776 44.2515 35.6445L44.2515 13.9491C44.2515 12.916 43.8346 12.0895 43.001 11.4696L23.9312 0.464856C22.8891 -0.155013 21.8471 -0.155013 20.805 0.464856L1.73521 11.4696C0.901558 12.0895 0.484734 12.916 0.484734 13.9491L0.484734 35.6445C0.484734 36.6776 0.901558 37.5041 1.73521 38.124L20.805 49.1246Z" fill="url(#paint0_linear)"/>
<g filter="url(#filter1_f)">
<path fill-rule="evenodd" clip-rule="evenodd" d="M15.1194 46.574L31.5757 30.2549L28.2953 29.6351L31.5757 26.3828L28.4495 25.6059L31.5757 22.5066L28.6079 21.7338V19.7172L26.5738 19.0973L25.4817 16.3079L22.8223 18.9444L21.7303 16.3079L18.9167 19.0973L17.9788 16.3079L0.62636 33.5113V36.4536C0.62636 37.4867 1.04318 38.3132 1.87684 38.9331L15.1194 46.574Z" fill="#5B9BD5" fill-opacity="0.22"/>
</g>
<path fill-rule="evenodd" clip-rule="evenodd" d="M14.9766 45.7603L31.4329 29.4412L28.1524 28.8214L31.4329 25.5691L28.3067 24.7922L31.4329 21.6929L28.4651 20.9201V18.9034L26.431 18.2836L25.3389 15.4942L22.6795 18.1307L21.5874 15.4942L18.7739 18.2836L17.836 15.4942L0.483538 32.6976V35.6399C0.483538 36.673 0.900362 37.4995 1.73401 38.1194L14.9766 45.7603Z" fill="black" fill-opacity="0.067"/>
<g filter="url(#filter2_f)">
<path fill-rule="evenodd" clip-rule="evenodd" d="M29.3898 22.5113H31.4239C31.7365 22.5113 31.8907 22.3543 31.8907 22.0444V21.4245C31.8907 21.1146 31.7365 20.9617 31.4239 20.9617H29.3898V18.945C29.3898 18.6351 29.2356 18.4822 28.9229 18.4822H27.0472V16.6226C27.0472 16.3127 26.8888 16.1556 26.5762 16.1556H25.951C25.6384 16.1556 25.4841 16.3127 25.4841 16.6226V18.4822H23.2958V16.6226C23.2958 16.3127 23.1374 16.1556 22.8248 16.1556H22.1995C21.8869 16.1556 21.7327 16.3127 21.7327 16.6226V18.4822H19.5444V16.6226C19.5444 16.3127 19.386 16.1556 19.0734 16.1556H18.4481C18.1355 16.1556 17.9813 16.3127 17.9813 16.6226V18.4822H16.1056C15.7929 18.4822 15.6345 18.6351 15.6345 18.945V20.9617H13.6046C13.292 20.9617 13.1336 21.1146 13.1336 21.4245V22.0444C13.1336 22.3543 13.292 22.5113 13.6046 22.5113H15.6345V24.8338H13.6046C13.292 24.8338 13.1336 24.9908 13.1336 25.3008V25.9206C13.1336 26.2306 13.292 26.3835 13.6046 26.3835H15.6345V28.71H13.6046C13.292 28.71 13.1336 28.8629 13.1336 29.1729V29.7927C13.1336 30.1027 13.292 30.2597 13.6046 30.2597H15.6345V32.2722C15.6345 32.5822 15.7929 32.7392 16.1056 32.7392H17.9813V34.5988C17.9813 34.9087 18.1355 35.0616 18.4481 35.0616H19.0734C19.386 35.0616 19.5444 34.9087 19.5444 34.5988V32.7392H21.7327V34.5988C21.7327 34.9087 21.8869 35.0616 22.1995 35.0616H22.8248C23.1374 35.0616 23.2958 34.9087 23.2958 34.5988V32.7392H25.4841V34.5988C25.4841 34.9087 25.6384 35.0616 25.951 35.0616H26.5762C26.8888 35.0616 27.0472 34.9087 27.0472 34.5988V32.7392H28.9229C29.2356 32.7392 29.3898 32.5822 29.3898 32.2722V30.2597H31.4239C31.7365 30.2597 31.8907 30.1027 31.8907 29.7927V29.1729C31.8907 28.8629 31.7365 28.71 31.4239 28.71H29.3898V26.3835H31.4239C31.7365 26.3835 31.8907 26.2306 31.8907 25.9206V25.3008C31.8907 24.9908 31.7365 24.8338 31.4239 24.8338H29.3898V22.5113ZM25.3257 23.2841C25.3257 22.9742 25.1715 22.8213 24.8589 22.8213H20.1696C19.857 22.8213 19.6986 22.9742 19.6986 23.2841V27.9331C19.6986 28.2431 19.857 28.4001 20.1696 28.4001H24.8589C25.1715 28.4001 25.3257 28.2431 25.3257 27.9331V23.2841ZM27.8267 20.4947C27.8267 20.1848 27.6725 20.0319 27.3599 20.0319H17.6687C17.356 20.0319 17.1976 20.1848 17.1976 20.4947V30.7225C17.1976 31.0325 17.356 31.1895 17.6687 31.1895H27.3599C27.6725 31.1895 27.8267 31.0325 27.8267 30.7225V20.4947Z" fill="#5B9BD5" fill-opacity="0.22"/>
</g>
<path fill-rule="evenodd" clip-rule="evenodd" d="M29.2468 21.6979H31.281C31.5936 21.6979 31.7478 21.5408 31.7478 21.2309V20.611C31.7478 20.3011 31.5936 20.1482 31.281 20.1482H29.2468V18.1316C29.2468 17.8216 29.0926 17.6687 28.78 17.6687H26.9043V15.8091C26.9043 15.4992 26.7459 15.3421 26.4333 15.3421H25.808C25.4954 15.3421 25.3412 15.4992 25.3412 15.8091V17.6687H23.1529V15.8091C23.1529 15.4992 22.9945 15.3421 22.6818 15.3421H22.0566C21.744 15.3421 21.5898 15.4992 21.5898 15.8091V17.6687H19.4014V15.8091C19.4014 15.4992 19.243 15.3421 18.9304 15.3421H18.3052C17.9925 15.3421 17.8383 15.4992 17.8383 15.8091V17.6687H15.9626C15.65 17.6687 15.4916 17.8216 15.4916 18.1316V20.1482H13.4617C13.149 20.1482 12.9906 20.3011 12.9906 20.611V21.2309C12.9906 21.5408 13.149 21.6979 13.4617 21.6979H15.4916V24.0203H13.4617C13.149 24.0203 12.9906 24.1773 12.9906 24.4873V25.1071C12.9906 25.4171 13.149 25.57 13.4617 25.57H15.4916V27.8966H13.4617C13.149 27.8966 12.9906 28.0495 12.9906 28.3594V28.9793C12.9906 29.2892 13.149 29.4462 13.4617 29.4462H15.4916V31.4587C15.4916 31.7687 15.65 31.9257 15.9626 31.9257H17.8383V33.7853C17.8383 34.0953 17.9925 34.2482 18.3052 34.2482H18.9304C19.243 34.2482 19.4014 34.0953 19.4014 33.7853V31.9257H21.5898V33.7853C21.5898 34.0953 21.744 34.2482 22.0566 34.2482H22.6818C22.9945 34.2482 23.1529 34.0953 23.1529 33.7853V31.9257H25.3412V33.7853C25.3412 34.0953 25.4954 34.2482 25.808 34.2482H26.4333C26.7459 34.2482 26.9043 34.0953 26.9043 33.7853V31.9257H28.78C29.0926 31.9257 29.2468 31.7687 29.2468 31.4587V29.4462H31.281C31.5936 29.4462 31.7478 29.2892 31.7478 28.9793V28.3594C31.7478 28.0495 31.5936 27.8966 31.281 27.8966H29.2468V25.57H31.281C31.5936 25.57 31.7478 25.4171 31.7478 25.1071V24.4873C31.7478 24.1773 31.5936 24.0203 31.281 24.0203H29.2468V21.6979ZM25.1828 22.4706C25.1828 22.1607 25.0286 22.0078 24.716 22.0078H20.0267C19.714 22.0078 19.5556 22.1607 19.5556 22.4706V27.1197C19.5556 27.4296 19.714 27.5866 20.0267 27.5866H24.716C25.0286 27.5866 25.1828 27.4296 25.1828 27.1197V22.4706ZM27.6838 19.6812C27.6838 19.3713 27.5295 19.2184 27.2169 19.2184H17.5257C17.2131 19.2184 17.0547 19.3713 17.0547 19.6812V29.9091C17.0547 30.219 17.2131 30.376 17.5257 30.376H27.2169C27.5295 30.376 27.6838 30.219 27.6838 29.9091V19.6812Z" fill="white"/>
<defs>
<filter id="filter0_f" x="0.585012" y="0.77133" width="43.8518" height="49.6747" filterUnits="userSpaceOnUse" color-interpolation-filters="sRGB">
<feFlood flood-opacity="0" result="BackgroundImageFix"/>
<feBlend mode="normal" in="SourceGraphic" in2="BackgroundImageFix" result="shape"/>
<feGaussianBlur stdDeviation="0.0212756" result="effect1_foregroundBlur"/>
</filter>
<filter id="filter1_f" x="0.583792" y="16.2653" width="31.0344" height="30.3513" filterUnits="userSpaceOnUse" color-interpolation-filters="sRGB">
<feFlood flood-opacity="0" result="BackgroundImageFix"/>
<feBlend mode="normal" in="SourceGraphic" in2="BackgroundImageFix" result="shape"/>
<feGaussianBlur stdDeviation="0.0212756" result="effect1_foregroundBlur"/>
</filter>
<filter id="filter2_f" x="13.091" y="16.1131" width="18.8423" height="18.9911" filterUnits="userSpaceOnUse" color-interpolation-filters="sRGB">
<feFlood flood-opacity="0" result="BackgroundImageFix"/>
<feBlend mode="normal" in="SourceGraphic" in2="BackgroundImageFix" result="shape"/>
<feGaussianBlur stdDeviation="0.0212756" result="effect1_foregroundBlur"/>
</filter>
<linearGradient id="paint0_linear" x1="248.144" y1="-202.658" x2="198.125" y2="-202.658" gradientUnits="userSpaceOnUse">
<stop stop-color="#4387FD"/>
<stop offset="1" stop-color="#4683EA"/>
</linearGradient>
</defs>
</svg>
