{
  "accessors": [
    {
      "bufferView": 2,
      "componentType": 5126,
      "count": 65532,
      "max": [
        5.8438215255737305,
        9.2979288101196289,
        12.264698028564453
      ],
      "min": [
        0,
        2.53509521484375,
        0
      ],
      "type": "VEC3"
    },
    {
      "bufferView": 2,
      "byteOffset": 786384,
      "componentType": 5126,
      "count": 65532,
      "max": [
        0.99999755620956421,
        0.99996113777160645,
        0.9999459981918335
      ],
      "min": [
        -0.99999898672103882,
        -0.99999254941940308,
        -0.99971878528594971
      ],
      "type": "VEC3"
    },
    {
      "bufferView": 3,
      "componentType": 5126,
      "count": 65532,
      "max": [
        0.99950671195983887,
        0.99999356269836426,
        0.98054331541061401,
        -1
      ],
      "min": [
        -0.99999153614044189,
        -0.99999719858169556,
        -0.99729251861572266,
        -1
      ],
      "type": "VEC4"
    },
    {
      "bufferView": 1,
      "componentType": 5126,
      "count": 65532,
      "max": [
        0.99980497360229492,
        0.4132080078125
      ],
      "min": [
        0.00012199999764561653,
        0.00037299998803064227
      ],
      "type": "VEC2"
    },
    {
      "bufferView": 0,
      "componentType": 5125,
      "count": 304068,
      "max": [
        65531
      ],
      "min": [
        0
      ],
      "type": "SCALAR"
    },
    {
      "bufferView": 2,
      "byteOffset": 1572768,
      "componentType": 5126,
      "count": 65532,
      "max": [
        7.4911527633666992,
        8.9901800155639648,
        19.116241455078125
      ],
      "min": [
        0.096148550510406494,
        0.22104835510253906,
        0.076990127563476562
      ],
      "type": "VEC3"
    },
    {
      "bufferView": 2,
      "byteOffset": 2359152,
      "componentType": 5126,
      "count": 65532,
      "max": [
        0.99999493360519409,
        0.99997490644454956,
        0.99923884868621826
      ],
      "min": [
        -0.99999904632568359,
        -0.99998617172241211,
        -0.99990618228912354
      ],
      "type": "VEC3"
    },
    {
      "bufferView": 3,
      "byteOffset": 1048512,
      "componentType": 5126,
      "count": 65532,
      "max": [
        0.99978154897689819,
        0.99999409914016724,
        0.98918265104293823,
        -1
      ],
      "min": [
        -0.99993890523910522,
        -0.99999624490737915,
        -0.9889255166053772,
        -1
      ],
      "type": "VEC4"
    },
    {
      "bufferView": 1,
      "byteOffset": 524256,
      "componentType": 5126,
      "count": 65532,
      "max": [
        0.99959301948547363,
        0.4132080078125
      ],
      "min": [
        0.00012199999764561653,
        0.00018899999849963933
      ],
      "type": "VEC2"
    },
    {
      "bufferView": 0,
      "byteOffset": 1216272,
      "componentType": 5125,
      "count": 285561,
      "max": [
        65531
      ],
      "min": [
        0
      ],
      "type": "SCALAR"
    },
    {
      "bufferView": 2,
      "byteOffset": 3145536,
      "componentType": 5126,
      "count": 65532,
      "max": [
        7.4899134635925293,
        8.7780513763427734,
        12.935064315795898
      ],
      "min": [
        0.18099796772003174,
        0.17268753051757812,
        1.8721609115600586
      ],
      "type": "VEC3"
    },
    {
      "bufferView": 2,
      "byteOffset": 3931920,
      "componentType": 5126,
      "count": 65532,
      "max": [
        0.99996495246887207,
        0.99999278783798218,
        0.9999426007270813
      ],
      "min": [
        -0.99991798400878906,
        -0.99998050928115845,
        -0.99992078542709351
      ],
      "type": "VEC3"
    },
    {
      "bufferView": 3,
      "byteOffset": 2097024,
      "componentType": 5126,
      "count": 65532,
      "max": [
        0.99999183416366577,
        0.99999034404754639,
        0.99522709846496582,
        1
      ],
      "min": [
        -0.99993437528610229,
        -0.99999618530273438,
        -0.99777662754058838,
        -1
      ],
      "type": "VEC4"
    },
    {
      "bufferView": 1,
      "byteOffset": 1048512,
      "componentType": 5126,
      "count": 65532,
      "max": [
        0.99967902898788452,
        0.4132080078125
      ],
      "min": [
        0.00012199999764561653,
        0.0003499999875202775
      ],
      "type": "VEC2"
    },
    {
      "bufferView": 0,
      "byteOffset": 2358516,
      "componentType": 5125,
      "count": 276456,
      "max": [
        65531
      ],
      "min": [
        0
      ],
      "type": "SCALAR"
    },
    {
      "bufferView": 2,
      "byteOffset": 4718304,
      "componentType": 5126,
      "count": 65532,
      "max": [
        7.3339848518371582,
        8.5132675170898438,
        20.974166870117188
      ],
      "min": [
        0.14608530700206757,
        1.7509288787841797,
        8.4234542846679688
      ],
      "type": "VEC3"
    },
    {
      "bufferView": 2,
      "byteOffset": 5504688,
      "componentType": 5126,
      "count": 65532,
      "max": [
        0.99999451637268066,
        0.99999904632568359,
        0.99999403953552246
      ],
      "min": [
        -0.99999964237213135,
        -0.99998944997787476,
        -0.99997323751449585
      ],
      "type": "VEC3"
    },
    {
      "bufferView": 3,
      "byteOffset": 3145536,
      "componentType": 5126,
      "count": 65532,
      "max": [
        0.9998786449432373,
        0.99999600648880005,
        0.99214047193527222,
        -1
      ],
      "min": [
        -0.99992573261260986,
        -0.99999845027923584,
        -0.99663668870925903,
        -1
      ],
      "type": "VEC4"
    },
    {
      "bufferView": 1,
      "byteOffset": 1572768,
      "componentType": 5126,
      "count": 65532,
      "max": [
        0.99970000982284546,
        0.4132080078125
      ],
      "min": [
        0.00012199999764561653,
        0.04923199862241745
      ],
      "type": "VEC2"
    },
    {
      "bufferView": 0,
      "byteOffset": 3464340,
      "componentType": 5125,
      "count": 286806,
      "max": [
        65531
      ],
      "min": [
        0
      ],
      "type": "SCALAR"
    },
    {
      "bufferView": 2,
      "byteOffset": 6291072,
      "componentType": 5126,
      "count": 65532,
      "max": [
        7.3263940811157227,
        7.9615411758422852,
        21.100824356079102
      ],
      "min": [
        0.14967718720436096,
        0,
        8.4140539169311523
      ],
      "type": "VEC3"
    },
    {
      "bufferView": 2,
      "byteOffset": 7077456,
      "componentType": 5126,
      "count": 65532,
      "max": [
        0.99999237060546875,
        0.99998950958251953,
        0.99992585182189941
      ],
      "min": [
        -0.99998772144317627,
        -0.99999547004699707,
        -0.99984198808670044
      ],
      "type": "VEC3"
    },
    {
      "bufferView": 3,
      "byteOffset": 4194048,
      "componentType": 5126,
      "count": 65532,
      "max": [
        0.99993199110031128,
        0.99999725818634033,
        0.98575431108474731,
        -1
      ],
      "min": [
        -0.99982470273971558,
        -0.99999672174453735,
        -0.99092268943786621,
        -1
      ],
      "type": "VEC4"
    },
    {
      "bufferView": 1,
      "byteOffset": 2097024,
      "componentType": 5126,
      "count": 65532,
      "max": [
        0.99969398975372314,
        0.41613799333572388
      ],
      "min": [
        0.00012199999764561653,
        0.04899200052022934
      ],
      "type": "VEC2"
    },
    {
      "bufferView": 0,
      "byteOffset": 4611564,
      "componentType": 5125,
      "count": 280689,
      "max": [
        65531
      ],
      "min": [
        0
      ],
      "type": "SCALAR"
    },
    {
      "bufferView": 2,
      "byteOffset": 7863840,
      "componentType": 5126,
      "count": 65532,
      "max": [
        8.5697860717773438,
        9.5669193267822266,
        31.714870452880859
      ],
      "min": [
        0.41881364583969116,
        0.15090179443359375,
        8.4293889999389648
      ],
      "type": "VEC3"
    },
    {
      "bufferView": 2,
      "byteOffset": 8650224,
      "componentType": 5126,
      "count": 65532,
      "max": [
        0.99998098611831665,
        0.99999558925628662,
        0.99997085332870483
      ],
      "min": [
        -0.99998873472213745,
        -0.99997860193252563,
        -0.99996656179428101
      ],
      "type": "VEC3"
    },
    {
      "bufferView": 3,
      "byteOffset": 5242560,
      "componentType": 5126,
      "count": 65532,
      "max": [
        0.99986177682876587,
        0.9999997615814209,
        0.99822163581848145,
        -1
      ],
      "min": [
        -0.9999927282333374,
        -0.99999403953552246,
        -0.99813711643218994,
        -1
      ],
      "type": "VEC4"
    },
    {
      "bufferView": 1,
      "byteOffset": 2621280,
      "componentType": 5126,
      "count": 65532,
      "max": [
        0.99896901845932007,
        0.43005400896072388
      ],
      "min": [
        0.00060999998822808266,
        0.05200900137424469
      ],
      "type": "VEC2"
    },
    {
      "bufferView": 0,
      "byteOffset": 5734320,
      "componentType": 5125,
      "count": 289191,
      "max": [
        65531
      ],
      "min": [
        0
      ],
      "type": "SCALAR"
    },
    {
      "bufferView": 2,
      "byteOffset": 9436608,
      "componentType": 5126,
      "count": 65534,
      "max": [
        6.7799148559570312,
        8.9847736358642578,
        27.868827819824219
      ],
      "min": [
        0.19012784957885742,
        1.5686721801757812,
        17.402639389038086
      ],
      "type": "VEC3"
    },
    {
      "bufferView": 2,
      "byteOffset": 10223016,
      "componentType": 5126,
      "count": 65534,
      "max": [
        0.99996590614318848,
        0.99998629093170166,
        0.99997085332870483
      ],
      "min": [
        -0.99999862909317017,
        -0.99998319149017334,
        -0.99996656179428101
      ],
      "type": "VEC3"
    },
    {
      "bufferView": 3,
      "byteOffset": 6291072,
      "componentType": 5126,
      "count": 65534,
      "max": [
        0.99985814094543457,
        0.99999803304672241,
        0.99131816625595093,
        -1
      ],
      "min": [
        -0.9999924898147583,
        -0.99999970197677612,
        -0.99754214286804199,
        -1
      ],
      "type": "VEC4"
    },
    {
      "bufferView": 1,
      "byteOffset": 3145536,
      "componentType": 5126,
      "count": 65534,
      "max": [
        0.99974197149276733,
        0.4132080078125
      ],
      "min": [
        0.00012199999764561653,
        0.00037200000951997936
      ],
      "type": "VEC2"
    },
    {
      "bufferView": 0,
      "byteOffset": 6891084,
      "componentType": 5125,
      "count": 265254,
      "max": [
        65533
      ],
      "min": [
        0
      ],
      "type": "SCALAR"
    },
    {
      "bufferView": 2,
      "byteOffset": 11009424,
      "componentType": 5126,
      "count": 65532,
      "max": [
        8.4026880264282227,
        8.9891080856323242,
        28.917800903320312
      ],
      "min": [
        0.18968865275382996,
        0.16553306579589844,
        17.391962051391602
      ],
      "type": "VEC3"
    },
    {
      "bufferView": 2,
      "byteOffset": 11795808,
      "componentType": 5126,
      "count": 65532,
      "max": [
        0.99994629621505737,
        0.99997633695602417,
        0.99998795986175537
      ],
      "min": [
        -0.99999743700027466,
        -0.99999970197677612,
        -0.99999672174453735
      ],
      "type": "VEC3"
    },
    {
      "bufferView": 3,
      "byteOffset": 7339616,
      "componentType": 5126,
      "count": 65532,
      "max": [
        0.99998855590820312,
        0.99999755620956421,
        0.99300450086593628,
        -1
      ],
      "min": [
        -0.99990934133529663,
        -0.99999213218688965,
        -0.99141663312911987,
        -1
      ],
      "type": "VEC4"
    },
    {
      "bufferView": 1,
      "byteOffset": 3669808,
      "componentType": 5126,
      "count": 65532,
      "max": [
        0.99978399276733398,
        0.4132080078125
      ],
      "min": [
        0.00012199999764561653,
        0.0064770001918077469
      ],
      "type": "VEC2"
    },
    {
      "bufferView": 0,
      "byteOffset": 7952100,
      "componentType": 5125,
      "count": 276306,
      "max": [
        65531
      ],
      "min": [
        0
      ],
      "type": "SCALAR"
    },
    {
      "bufferView": 2,
      "byteOffset": 12582192,
      "componentType": 5126,
      "count": 65532,
      "max": [
        5.9044985771179199,
        8.995945930480957,
        35.368461608886719
      ],
      "min": [
        1.1866426467895508,
        1.3565902709960938,
        21.861288070678711
      ],
      "type": "VEC3"
    },
    {
      "bufferView": 2,
      "byteOffset": 13368576,
      "componentType": 5126,
      "count": 65532,
      "max": [
        0.99999344348907471,
        0.99997985363006592,
        0.99986809492111206
      ],
      "min": [
        -0.99999904632568359,
        -0.99994128942489624,
        -0.99690806865692139
      ],
      "type": "VEC3"
    },
    {
      "bufferView": 3,
      "byteOffset": 8388128,
      "componentType": 5126,
      "count": 65532,
      "max": [
        0.99996656179428101,
        0.99999880790710449,
        0.99149662256240845,
        -1
      ],
      "min": [
        -0.99705284833908081,
        -0.99999618530273438,
        -0.99702960252761841,
        -1
      ],
      "type": "VEC4"
    },
    {
      "bufferView": 1,
      "byteOffset": 4194064,
      "componentType": 5126,
      "count": 65532,
      "max": [
        0.99979197978973389,
        0.4132080078125
      ],
      "min": [
        0.00012199999764561653,
        0.027251999825239182
      ],
      "type": "VEC2"
    },
    {
      "bufferView": 0,
      "byteOffset": 9057324,
      "componentType": 5125,
      "count": 311739,
      "max": [
        65531
      ],
      "min": [
        0
      ],
      "type": "SCALAR"
    },
    {
      "bufferView": 2,
      "byteOffset": 14154960,
      "componentType": 5126,
      "count": 65532,
      "max": [
        8.5674514770507812,
        8.9956579208374023,
        35.36077880859375
      ],
      "min": [
        1.1866426467895508,
        1.2142257690429688,
        26.330280303955078
      ],
      "type": "VEC3"
    },
    {
      "bufferView": 2,
      "byteOffset": 14941344,
      "componentType": 5126,
      "count": 65532,
      "max": [
        0.99990874528884888,
        0.99996805191040039,
        0.99994820356369019
      ],
      "min": [
        -0.99999862909317017,
        -0.99999970197677612,
        -0.99994498491287231
      ],
      "type": "VEC3"
    },
    {
      "bufferView": 3,
      "byteOffset": 9436640,
      "componentType": 5126,
      "count": 65532,
      "max": [
        0.99995690584182739,
        0.99998056888580322,
        0.99243688583374023,
        1
      ],
      "min": [
        -0.99999797344207764,
        -0.99999541044235229,
        -0.9961545467376709,
        -1
      ],
      "type": "VEC4"
    },
    {
      "bufferView": 1,
      "byteOffset": 4718320,
      "componentType": 5126,
      "count": 65532,
      "max": [
        0.99964398145675659,
        0.4132080078125
      ],
      "min": [
        0.00012199999764561653,
        0.095322996377944946
      ],
      "type": "VEC2"
    },
    {
      "bufferView": 0,
      "byteOffset": 10304280,
      "componentType": 5125,
      "count": 271518,
      "max": [
        65531
      ],
      "min": [
        0
      ],
      "type": "SCALAR"
    },
    {
      "bufferView": 2,
      "byteOffset": 15727728,
      "componentType": 5126,
      "count": 37614,
      "max": [
        7.078610897064209,
        4.5285568237304688,
        35.280052185058594
      ],
      "min": [
        1.4941562414169312,
        1.3548431396484375,
        26.366012573242188
      ],
      "type": "VEC3"
    },
    {
      "bufferView": 2,
      "byteOffset": 16179096,
      "componentType": 5126,
      "count": 37614,
      "max": [
        0.99997693300247192,
        0.99999624490737915,
        0.99921596050262451
      ],
      "min": [
        -0.99967062473297119,
        -0.99999415874481201,
        -0.99992668628692627
      ],
      "type": "VEC3"
    },
    {
      "bufferView": 3,
      "byteOffset": 10485152,
      "componentType": 5126,
      "count": 37614,
      "max": [
        0.99998211860656738,
        0.99998414516448975,
        0.99102842807769775,
        -1
      ],
      "min": [
        -0.99984067678451538,
        -0.99998795986175537,
        -0.99153709411621094,
        -1
      ],
      "type": "VEC4"
    },
    {
      "bufferView": 1,
      "byteOffset": 5242576,
      "componentType": 5126,
      "count": 37614,
      "max": [
        0.99978899955749512,
        0.4132080078125
      ],
      "min": [
        0.00085399998351931572,
        0.095945000648498535
      ],
      "type": "VEC2"
    },
    {
      "bufferView": 0,
      "byteOffset": 11390352,
      "componentType": 5125,
      "count": 152412,
      "max": [
        37613
      ],
      "min": [
        0
      ],
      "type": "SCALAR"
    }
  ],
  "asset": {
    "extras": {
      "author": "Skokloster Castle (Skoklosters slott) (https://sketchfab.com/SkoklosterCastle)",
      "license": "CC-BY-4.0 (http://creativecommons.org/licenses/by/4.0/)",
      "source": "https://sketchfab.com/models/47a48a615ab949c3a87e1f65258f198b",
      "title": "Iron Hand - Prosthetic Arm"
    },
    "generator": "Sketchfab-4.32.0",
    "version": "2.0"
  },
  "bufferViews": [
    {
      "buffer": 0,
      "byteLength": 12000000,
      "byteOffset": 0,
      "name": "floatBufferViews",
      "target": 34963
    },
    {
      "buffer": 0,
      "byteLength": 5543488,
      "byteOffset": 12000000,
      "byteStride": 8,
      "name": "floatBufferViews",
      "target": 34962
    },
    {
      "buffer": 0,
      "byteLength": 16630464,
      "byteOffset": 17543488,
      "byteStride": 12,
      "name": "floatBufferViews",
      "target": 34962
    },
    {
      "buffer": 0,
      "byteLength": 11086976,
      "byteOffset": 34173952,
      "byteStride": 16,
      "name": "floatBufferViews",
      "target": 34962
    }
  ],
  "buffers": [
    {
      "byteLength": 45260928,
      "uri": "scene.bin"
    }
  ],
  "images": [
    {
      "uri": "textures/model_Material_u1_v1_baseColor.jpeg"
    }
  ],
  "materials": [
    {
      "doubleSided": true,
      "name": "model_Material_u1_v1",
      "pbrMetallicRoughness": {
        "baseColorFactor": [
          1,
          1,
          1,
          1
        ],
        "baseColorTexture": {
          "index": 0,
          "texCoord": 0
        },
        "metallicFactor": 1,
        "roughnessFactor": 0.46239838950000001
      }
    }
  ],
  "meshes": [
    {
      "primitives": [
        {
          "attributes": {
            "NORMAL": 1,
            "POSITION": 0,
            "TANGENT": 2,
            "TEXCOORD_0": 3
          },
          "indices": 4,
          "material": 0,
          "mode": 4
        }
      ]
    },
    {
      "primitives": [
        {
          "attributes": {
            "NORMAL": 6,
            "POSITION": 5,
            "TANGENT": 7,
            "TEXCOORD_0": 8
          },
          "indices": 9,
          "material": 0,
          "mode": 4
        }
      ]
    },
    {
      "primitives": [
        {
          "attributes": {
            "NORMAL": 11,
            "POSITION": 10,
            "TANGENT": 12,
            "TEXCOORD_0": 13
          },
          "indices": 14,
          "material": 0,
          "mode": 4
        }
      ]
    },
    {
      "primitives": [
        {
          "attributes": {
            "NORMAL": 16,
            "POSITION": 15,
            "TANGENT": 17,
            "TEXCOORD_0": 18
          },
          "indices": 19,
          "material": 0,
          "mode": 4
        }
      ]
    },
    {
      "primitives": [
        {
          "attributes": {
            "NORMAL": 21,
            "POSITION": 20,
            "TANGENT": 22,
            "TEXCOORD_0": 23
          },
          "indices": 24,
          "material": 0,
          "mode": 4
        }
      ]
    },
    {
      "primitives": [
        {
          "attributes": {
            "NORMAL": 26,
            "POSITION": 25,
            "TANGENT": 27,
            "TEXCOORD_0": 28
          },
          "indices": 29,
          "material": 0,
          "mode": 4
        }
      ]
    },
    {
      "primitives": [
        {
          "attributes": {
            "NORMAL": 31,
            "POSITION": 30,
            "TANGENT": 32,
            "TEXCOORD_0": 33
          },
          "indices": 34,
          "material": 0,
          "mode": 4
        }
      ]
    },
    {
      "primitives": [
        {
          "attributes": {
            "NORMAL": 36,
            "POSITION": 35,
            "TANGENT": 37,
            "TEXCOORD_0": 38
          },
          "indices": 39,
          "material": 0,
          "mode": 4
        }
      ]
    },
    {
      "primitives": [
        {
          "attributes": {
            "NORMAL": 41,
            "POSITION": 40,
            "TANGENT": 42,
            "TEXCOORD_0": 43
          },
          "indices": 44,
          "material": 0,
          "mode": 4
        }
      ]
    },
    {
      "primitives": [
        {
          "attributes": {
            "NORMAL": 46,
            "POSITION": 45,
            "TANGENT": 47,
            "TEXCOORD_0": 48
          },
          "indices": 49,
          "material": 0,
          "mode": 4
        }
      ]
    },
    {
      "primitives": [
        {
          "attributes": {
            "NORMAL": 51,
            "POSITION": 50,
            "TANGENT": 52,
            "TEXCOORD_0": 53
          },
          "indices": 54,
          "material": 0,
          "mode": 4
        }
      ]
    }
  ],
  "nodes": [
    {
      "children": [
        1
      ],
      "name": "RootNode (gltf orientation matrix)",
      "rotation": [
        -0.70710678118654746,
        -0,
        -0,
        0.70710678118654757
      ]
    },
    {
      "children": [
        2
      ],
      "matrix": [
        -0.01384054496884346,
        0.76942378282546997,
        -0.63858872652053833,
        0,
        -0.00994889996945858,
        0.63851231336593628,
        0.76954734325408936,
        0,
        0.99985474348068237,
        0.017004208639264107,
        -0.0011824385728687048,
        0,
        4.284271240234375,
        -9.7338018417358398,
        16.326187133789062,
        1
      ],
      "name": "RootNode (model correction matrix)"
    },
    {
      "children": [
        3
      ],
      "matrix": [
        1,
        0,
        0,
        0,
        0,
        1,
        0,
        0,
        0,
        0,
        1,
        0,
        -0.04226398840546608,
        -22.687656402587891,
        -17.845283508300781,
        1
      ],
      "name": "model.obj.cleaner.materialmerger.gles"
    },
    {
      "children": [
        4,
        5,
        6,
        7,
        8,
        9,
        10,
        11,
        12,
        13,
        14
      ],
      "name": ""
    },
    {
      "mesh": 0,
      "name": ""
    },
    {
      "mesh": 1,
      "name": ""
    },
    {
      "mesh": 2,
      "name": ""
    },
    {
      "mesh": 3,
      "name": ""
    },
    {
      "mesh": 4,
      "name": ""
    },
    {
      "mesh": 5,
      "name": ""
    },
    {
      "mesh": 6,
      "name": ""
    },
    {
      "mesh": 7,
      "name": ""
    },
    {
      "mesh": 8,
      "name": ""
    },
    {
      "mesh": 9,
      "name": ""
    },
    {
      "mesh": 10,
      "name": ""
    }
  ],
  "samplers": [
    {
      "magFilter": 9729,
      "minFilter": 9987,
      "wrapS": 10497,
      "wrapT": 10497
    }
  ],
  "scene": 0,
  "scenes": [
    {
      "name": "OSG_Scene",
      "nodes": [
        0
      ]
    }
  ],
  "textures": [
    {
      "sampler": 0,
      "source": 0
    }
  ]
}

